<svg xmlns="http://www.w3.org/2000/svg" xmlns:xlink="http://www.w3.org/1999/xlink" width="40" zoomAndPan="magnify" viewBox="0 0 30 30.000001" height="40" preserveAspectRatio="xMidYMid meet" version="1.0"><defs><clipPath id="a9c70a3a5c"><path d="M 2.648438 0 L 26.601562 0 L 26.601562 29.03125 L 2.648438 29.03125 Z M 2.648438 0 " clip-rule="nonzero"/></clipPath></defs><g clip-path="url(#a9c70a3a5c)"><path fill="#03989e" d="M 23.34375 11.910156 C 23.34375 17.210938 18.546875 21.511719 12.628906 21.511719 C 9.882812 21.511719 7.269531 20.640625 5.097656 18.96875 C 4.496094 18.5 3.933594 17.984375 3.460938 17.402344 C 4.054688 19.398438 4.953125 21.332031 6.167969 23.046875 C 8.070312 25.75 10.714844 27.921875 14.003906 29.03125 L 14.003906 24.585938 C 14.003906 24.242188 14.28125 23.964844 14.625 23.964844 C 17.929688 23.964844 20.929688 22.617188 23.097656 20.445312 C 25.257812 18.273438 26.597656 15.289062 26.597656 11.980469 C 26.597656 8.667969 25.25 5.671875 23.09375 3.5 C 20.921875 1.347656 17.929688 0 14.625 0 C 11.316406 0 8.335938 1.347656 6.167969 3.5 C 3.996094 5.671875 2.652344 8.675781 2.652344 11.984375 C 2.652344 12.222656 2.667969 12.472656 2.667969 12.722656 C 2.90625 14.789062 4.113281 16.636719 5.871094 17.984375 C 6.078125 18.144531 6.300781 18.289062 6.519531 18.441406 L 6.519531 10.800781 C 6.519531 8.746094 7.464844 6.886719 8.96875 5.539062 C 10.457031 4.210938 12.511719 3.378906 14.785156 3.378906 C 16.46875 3.378906 18.0625 3.839844 19.402344 4.652344 C 20.75 5.476562 21.824219 6.648438 22.460938 8.078125 C 22.738281 8.667969 22.964844 9.300781 23.109375 9.921875 C 23.273438 10.578125 23.34375 11.242188 23.34375 11.910156 Z M 23.34375 11.910156 " fill-opacity="1" fill-rule="nonzero"/></g><path fill="#03989e" d="M 12.628906 20.257812 C 17.855469 20.257812 22.089844 16.519531 22.089844 11.910156 C 22.089844 11.335938 22.015625 10.769531 21.898438 10.226562 C 21.765625 9.660156 21.574219 9.117188 21.324219 8.597656 L 21.304688 8.582031 C 20.789062 7.398438 19.875 6.410156 18.753906 5.730469 C 17.617188 5.035156 16.230469 4.640625 14.785156 4.640625 C 12.835938 4.640625 11.066406 5.347656 9.796875 6.472656 C 8.554688 7.578125 7.773438 9.117188 7.773438 10.800781 L 7.773438 19.148438 C 9.246094 19.839844 10.929688 20.257812 12.628906 20.257812 Z M 12.453125 13.832031 C 12.234375 13.917969 11.996094 13.976562 11.746094 13.976562 C 10.695312 13.976562 9.855469 13.117188 9.855469 12.082031 C 9.855469 11.03125 10.695312 10.191406 11.746094 10.191406 C 12.777344 10.191406 13.636719 11.03125 13.636719 12.082031 C 13.636719 12.484375 13.503906 12.851562 13.296875 13.164062 C 13.265625 12.839844 12.988281 12.589844 12.664062 12.589844 C 12.308594 12.589844 12.011719 12.867188 12.011719 13.222656 C 12.007812 13.503906 12.199219 13.753906 12.453125 13.832031 Z M 17.511719 13.976562 C 16.460938 13.976562 15.621094 13.117188 15.621094 12.082031 C 15.621094 11.03125 16.460938 10.191406 17.511719 10.191406 C 18.5625 10.191406 19.402344 11.03125 19.402344 12.082031 C 19.402344 12.484375 19.289062 12.851562 19.0625 13.164062 C 19.03125 12.839844 18.753906 12.589844 18.429688 12.589844 C 18.074219 12.589844 17.796875 12.867188 17.796875 13.222656 C 17.796875 13.5 17.976562 13.753906 18.238281 13.824219 C 18.015625 13.917969 17.769531 13.976562 17.511719 13.976562 Z M 17.511719 13.976562 " fill-opacity="1" fill-rule="nonzero"/></svg>