<svg xmlns="http://www.w3.org/2000/svg" xmlns:xlink="http://www.w3.org/1999/xlink" width="300" zoomAndPan="magnify" viewBox="0 0 224.87999 74.999997" height="100" preserveAspectRatio="xMidYMid meet" version="1.0"><defs><g/><clipPath id="137e5b769b"><path d="M 211 34 L 224.761719 34 L 224.761719 57 L 211 57 Z M 211 34 " clip-rule="nonzero"/></clipPath><clipPath id="cfd81ecafb"><path d="M 0 6.777344 L 50.207031 6.777344 L 50.207031 67.496094 L 0 67.496094 Z M 0 6.777344 " clip-rule="nonzero"/></clipPath></defs><g fill="#000000" fill-opacity="1"><g transform="translate(51.780532, 56.459746)"><g><path d="M 12.808594 0.511719 C 18.332031 0.511719 22.675781 -3.195312 23.699219 -8.71875 L 18.8125 -8.71875 C 18.015625 -5.910156 15.746094 -4.121094 12.808594 -4.121094 C 9.007812 -4.121094 6.164062 -7.121094 6.164062 -11.148438 C 6.164062 -15.171875 9.007812 -18.207031 12.808594 -18.207031 C 15.617188 -18.207031 17.855469 -16.546875 18.78125 -13.925781 L 23.605469 -13.925781 C 22.582031 -19.226562 18.238281 -22.835938 12.808594 -22.835938 C 6.226562 -22.835938 1.246094 -17.789062 1.246094 -11.148438 C 1.246094 -4.535156 6.226562 0.511719 12.808594 0.511719 Z M 12.808594 0.511719 "/></g></g></g><g fill="#000000" fill-opacity="1"><g transform="translate(76.406302, 56.459746)"><g><path d="M 12.105469 -17.632812 C 10.03125 -17.632812 8.207031 -16.863281 6.898438 -15.617188 L 6.898438 -23.445312 L 2.234375 -23.445312 L 2.234375 0 L 6.898438 0 L 6.898438 -9.039062 C 6.898438 -11.851562 8.433594 -13.542969 10.765625 -13.542969 C 12.839844 -13.542969 13.765625 -12.265625 13.765625 -9.679688 L 13.765625 0 L 18.429688 0 L 18.429688 -10.476562 C 18.429688 -14.851562 16.003906 -17.632812 12.105469 -17.632812 Z M 12.105469 -17.632812 "/></g></g></g><g fill="#000000" fill-opacity="1"><g transform="translate(96.879865, 56.459746)"><g><path d="M 16.289062 -17.246094 L 15.808594 -15.617188 C 14.308594 -16.929688 12.359375 -17.726562 10.125 -17.726562 C 4.949219 -17.726562 1.085938 -13.832031 1.085938 -8.625 C 1.085938 -3.417969 4.949219 0.511719 10.125 0.511719 C 12.328125 0.511719 14.246094 -0.253906 15.714844 -1.566406 L 16.128906 0 L 19.769531 0 L 19.769531 -17.246094 Z M 10.507812 -3.898438 C 7.792969 -3.898438 5.8125 -5.941406 5.8125 -8.625 C 5.8125 -11.339844 7.792969 -13.351562 10.507812 -13.351562 C 13.222656 -13.351562 15.203125 -11.339844 15.203125 -8.625 C 15.203125 -5.910156 13.222656 -3.898438 10.507812 -3.898438 Z M 10.507812 -3.898438 "/></g></g></g><g fill="#000000" fill-opacity="1"><g transform="translate(118.918498, 56.459746)"><g><path d="M 10.667969 -4.152344 C 8.941406 -4.152344 7.984375 -5.109375 7.984375 -6.769531 L 7.984375 -13.480469 L 12.679688 -13.480469 L 12.679688 -17.246094 L 7.921875 -17.246094 L 7.921875 -21.71875 L 7.027344 -21.71875 L 0.222656 -14.5 L 0.222656 -13.480469 L 3.320312 -13.480469 L 3.320312 -6.132812 C 3.320312 -2.332031 5.652344 0 9.453125 0 L 12.777344 0 L 12.777344 -4.152344 Z M 10.667969 -4.152344 "/></g></g></g><g fill="#000000" fill-opacity="1"><g transform="translate(132.652719, 56.459746)"><g><path d="M 10.667969 -4.152344 C 8.941406 -4.152344 7.984375 -5.109375 7.984375 -6.769531 L 7.984375 -13.480469 L 12.679688 -13.480469 L 12.679688 -17.246094 L 7.921875 -17.246094 L 7.921875 -21.71875 L 7.027344 -21.71875 L 0.222656 -14.5 L 0.222656 -13.480469 L 3.320312 -13.480469 L 3.320312 -6.132812 C 3.320312 -2.332031 5.652344 0 9.453125 0 L 12.777344 0 L 12.777344 -4.152344 Z M 10.667969 -4.152344 "/></g></g></g><g fill="#000000" fill-opacity="1"><g transform="translate(146.386939, 56.459746)"><g><path d="M 14.148438 -17.246094 L 9.835938 -6.613281 L 5.238281 -17.246094 L 0.160156 -17.246094 L 7.472656 -1.308594 L 7.410156 -1.183594 C 6.355469 1.4375 5.78125 2.042969 3.511719 2.042969 L 1.917969 2.042969 L 1.917969 6.226562 L 3.832031 6.226562 C 7.699219 6.226562 9.519531 4.472656 11.59375 -0.222656 L 19.101562 -17.246094 Z M 14.148438 -17.246094 "/></g></g></g><g fill="#000000" fill-opacity="1"><g transform="translate(165.614847, 56.459746)"><g><path d="M 11.148438 -22.359375 L 2.554688 -22.359375 L 2.554688 0 L 7.378906 0 L 7.378906 -6.964844 L 11.148438 -6.964844 C 15.652344 -6.964844 19.035156 -10.253906 19.035156 -14.660156 C 19.035156 -19.070312 15.617188 -22.359375 11.148438 -22.359375 Z M 10.921875 -11.433594 L 7.378906 -11.433594 L 7.378906 -17.855469 L 10.921875 -17.855469 C 12.839844 -17.855469 14.148438 -16.511719 14.148438 -14.660156 C 14.148438 -12.808594 12.839844 -11.433594 10.921875 -11.433594 Z M 10.921875 -11.433594 "/></g></g></g><g fill="#000000" fill-opacity="1"><g transform="translate(185.481556, 56.459746)"><g><path d="M 10.988281 -22.359375 L 2.554688 -22.359375 L 2.554688 0 L 10.988281 0 C 17.566406 0 22.328125 -4.695312 22.328125 -11.179688 C 22.328125 -17.664062 17.566406 -22.359375 10.988281 -22.359375 Z M 10.890625 -4.472656 L 7.378906 -4.472656 L 7.378906 -17.855469 L 10.890625 -17.855469 C 14.722656 -17.855469 17.375 -15.140625 17.375 -11.179688 C 17.375 -7.28125 14.722656 -4.472656 10.890625 -4.472656 Z M 10.890625 -4.472656 "/></g></g></g><g clip-path="url(#137e5b769b)"><g fill="#000000" fill-opacity="1"><g transform="translate(209.14913, 56.459746)"><g><path d="M 15.90625 -17.855469 L 15.90625 -22.359375 L 2.554688 -22.359375 L 2.554688 0 L 7.378906 0 L 7.378906 -8.558594 L 15.074219 -8.558594 L 15.074219 -12.9375 L 7.378906 -12.9375 L 7.378906 -17.855469 Z M 15.90625 -17.855469 "/></g></g></g></g><g clip-path="url(#cfd81ecafb)"><path fill="#03989e" d="M 43.371094 31.683594 C 43.371094 42.773438 33.316406 51.769531 20.910156 51.769531 C 15.160156 51.769531 9.675781 49.949219 5.128906 46.453125 C 3.863281 45.46875 2.683594 44.386719 1.699219 43.171875 C 2.9375 47.351562 4.824219 51.394531 7.363281 54.976562 C 11.355469 60.636719 16.898438 65.175781 23.792969 67.496094 L 23.792969 58.195312 C 23.792969 57.476562 24.378906 56.894531 25.09375 56.894531 C 32.027344 56.894531 38.3125 54.078125 42.863281 49.535156 C 47.386719 44.992188 50.195312 38.753906 50.195312 31.832031 C 50.195312 24.910156 47.375 18.644531 42.847656 14.101562 C 38.300781 9.597656 32.027344 6.777344 25.09375 6.777344 C 18.164062 6.777344 11.914062 9.597656 7.363281 14.101562 C 2.816406 18.644531 -0.00390625 24.921875 -0.00390625 31.84375 C -0.00390625 32.339844 0.03125 32.863281 0.03125 33.386719 C 0.53125 37.707031 3.058594 41.570312 6.746094 44.386719 C 7.183594 44.726562 7.644531 45.03125 8.105469 45.347656 L 8.105469 29.367188 C 8.105469 25.066406 10.089844 21.179688 13.238281 18.363281 C 16.363281 15.582031 20.667969 13.847656 25.433594 13.847656 C 28.960938 13.847656 32.304688 14.804688 35.117188 16.503906 C 37.9375 18.230469 40.1875 20.683594 41.523438 23.671875 C 42.109375 24.910156 42.582031 26.230469 42.886719 27.53125 C 43.226562 28.902344 43.371094 30.289062 43.371094 31.683594 Z M 43.371094 31.683594 " fill-opacity="1" fill-rule="nonzero"/></g><path fill="#03989e" d="M 20.910156 49.148438 C 31.867188 49.148438 40.746094 41.328125 40.746094 31.683594 C 40.746094 30.484375 40.585938 29.304688 40.34375 28.164062 C 40.066406 26.984375 39.664062 25.84375 39.140625 24.761719 L 39.105469 24.726562 C 38.023438 22.25 36.101562 20.183594 33.753906 18.765625 C 31.371094 17.308594 28.464844 16.480469 25.433594 16.480469 C 21.347656 16.480469 17.640625 17.960938 14.976562 20.320312 C 12.375 22.625 10.734375 25.84375 10.734375 29.367188 L 10.734375 46.828125 C 13.820312 48.273438 17.347656 49.148438 20.910156 49.148438 Z M 20.546875 35.703125 C 20.085938 35.886719 19.585938 36.007812 19.0625 36.007812 C 16.863281 36.007812 15.097656 34.210938 15.097656 32.050781 C 15.097656 29.851562 16.863281 28.089844 19.0625 28.089844 C 21.226562 28.089844 23.027344 29.851562 23.027344 32.050781 C 23.027344 32.886719 22.75 33.652344 22.308594 34.308594 C 22.25 33.628906 21.664062 33.105469 20.984375 33.105469 C 20.242188 33.105469 19.621094 33.6875 19.621094 34.429688 C 19.609375 35.023438 20.011719 35.546875 20.546875 35.703125 Z M 31.152344 36.007812 C 28.949219 36.007812 27.1875 34.210938 27.1875 32.050781 C 27.1875 29.851562 28.949219 28.089844 31.152344 28.089844 C 33.351562 28.089844 35.117188 29.851562 35.117188 32.050781 C 35.117188 32.886719 34.871094 33.652344 34.398438 34.308594 C 34.335938 33.628906 33.753906 33.105469 33.074219 33.105469 C 32.332031 33.105469 31.746094 33.6875 31.746094 34.429688 C 31.746094 35.011719 32.125 35.546875 32.671875 35.691406 C 32.207031 35.886719 31.6875 36.007812 31.152344 36.007812 Z M 31.152344 36.007812 " fill-opacity="1" fill-rule="nonzero"/></svg>