<svg xmlns="http://www.w3.org/2000/svg" xmlns:xlink="http://www.w3.org/1999/xlink" width="500" zoomAndPan="magnify" viewBox="0 0 375 299.999988" height="400" preserveAspectRatio="xMidYMid meet" version="1.0"><defs><g/><clipPath id="0de0ac1574"><path d="M 106.679688 10.167969 L 268.625 10.167969 L 268.625 205.917969 L 106.679688 205.917969 Z M 106.679688 10.167969 " clip-rule="nonzero"/></clipPath></defs><g fill="#ffffff" fill-opacity="1"><g transform="translate(-0.941771, 276.900563)"><g><path d="M 27.667969 1.105469 C 39.605469 1.105469 48.988281 -6.898438 51.199219 -18.835938 L 40.640625 -18.835938 C 38.914062 -12.765625 34.015625 -8.902344 27.667969 -8.902344 C 19.457031 -8.902344 13.316406 -15.386719 13.316406 -24.082031 C 13.316406 -32.773438 19.457031 -39.328125 27.667969 -39.328125 C 33.742188 -39.328125 38.570312 -35.742188 40.570312 -30.085938 L 50.992188 -30.085938 C 48.78125 -41.539062 39.398438 -49.335938 27.667969 -49.335938 C 13.453125 -49.335938 2.691406 -38.433594 2.691406 -24.082031 C 2.691406 -9.796875 13.453125 1.105469 27.667969 1.105469 Z M 27.667969 1.105469 "/></g></g></g><g fill="#ffffff" fill-opacity="1"><g transform="translate(52.25723, 276.900563)"><g><path d="M 26.152344 -38.089844 C 21.664062 -38.089844 17.734375 -36.433594 14.902344 -33.742188 L 14.902344 -50.644531 L 4.828125 -50.644531 L 4.828125 0 L 14.902344 0 L 14.902344 -19.527344 C 14.902344 -25.597656 18.214844 -29.257812 23.253906 -29.257812 C 27.738281 -29.257812 29.738281 -26.496094 29.738281 -20.90625 L 29.738281 0 L 39.8125 0 L 39.8125 -22.632812 C 39.8125 -32.085938 34.570312 -38.089844 26.152344 -38.089844 Z M 26.152344 -38.089844 "/></g></g><g transform="translate(96.486228, 276.900563)"><g><path d="M 35.191406 -37.261719 L 34.15625 -33.742188 C 30.910156 -36.570312 26.703125 -38.296875 21.871094 -38.296875 C 10.695312 -38.296875 2.347656 -29.878906 2.347656 -18.628906 C 2.347656 -7.382812 10.695312 1.105469 21.871094 1.105469 C 26.632812 1.105469 30.773438 -0.550781 33.949219 -3.382812 L 34.84375 0 L 42.710938 0 L 42.710938 -37.261719 Z M 22.699219 -8.417969 C 16.835938 -8.417969 12.558594 -12.835938 12.558594 -18.628906 C 12.558594 -24.496094 16.835938 -28.84375 22.699219 -28.84375 C 28.566406 -28.84375 32.84375 -24.496094 32.84375 -18.628906 C 32.84375 -12.765625 28.566406 -8.417969 22.699219 -8.417969 Z M 22.699219 -8.417969 "/></g></g></g><g fill="#ffffff" fill-opacity="1"><g transform="translate(144.096231, 276.900563)"><g><path d="M 23.046875 -8.96875 C 19.320312 -8.96875 17.25 -11.039062 17.25 -14.628906 L 17.25 -29.117188 L 27.394531 -29.117188 L 27.394531 -37.261719 L 17.113281 -37.261719 L 17.113281 -46.921875 L 15.179688 -46.921875 L 0.484375 -31.324219 L 0.484375 -29.117188 L 7.175781 -29.117188 L 7.175781 -13.246094 C 7.175781 -5.035156 12.214844 0 20.425781 0 L 27.601562 0 L 27.601562 -8.96875 Z M 23.046875 -8.96875 "/></g></g></g><g fill="#ffffff" fill-opacity="1"><g transform="translate(173.766227, 276.900563)"><g><path d="M 23.046875 -8.96875 C 19.320312 -8.96875 17.25 -11.039062 17.25 -14.628906 L 17.25 -29.117188 L 27.394531 -29.117188 L 27.394531 -37.261719 L 17.113281 -37.261719 L 17.113281 -46.921875 L 15.179688 -46.921875 L 0.484375 -31.324219 L 0.484375 -29.117188 L 7.175781 -29.117188 L 7.175781 -13.246094 C 7.175781 -5.035156 12.214844 0 20.425781 0 L 27.601562 0 L 27.601562 -8.96875 Z M 23.046875 -8.96875 "/></g></g></g><g fill="#ffffff" fill-opacity="1"><g transform="translate(203.436234, 276.900563)"><g><path d="M 30.566406 -37.261719 L 21.253906 -14.28125 L 11.316406 -37.261719 L 0.34375 -37.261719 L 16.144531 -2.828125 L 16.007812 -2.554688 C 13.730469 3.105469 12.488281 4.414062 7.589844 4.414062 L 4.140625 4.414062 L 4.140625 13.453125 L 8.28125 13.453125 C 16.628906 13.453125 20.5625 9.660156 25.046875 -0.484375 L 41.261719 -37.261719 Z M 30.566406 -37.261719 "/></g></g></g><g fill="#ffffff" fill-opacity="1"><g transform="translate(244.974233, 276.900563)"><g><path d="M 24.082031 -48.300781 L 5.519531 -48.300781 L 5.519531 0 L 15.9375 0 L 15.9375 -15.042969 L 24.082031 -15.042969 C 33.808594 -15.042969 41.125 -22.148438 41.125 -31.671875 C 41.125 -41.191406 33.742188 -48.300781 24.082031 -48.300781 Z M 23.597656 -24.703125 L 15.9375 -24.703125 L 15.9375 -38.570312 L 23.597656 -38.570312 C 27.738281 -38.570312 30.566406 -35.671875 30.566406 -31.671875 C 30.566406 -27.667969 27.738281 -24.703125 23.597656 -24.703125 Z M 23.597656 -24.703125 "/></g></g><g transform="translate(287.892231, 276.900563)"><g><path d="M 23.734375 -48.300781 L 5.519531 -48.300781 L 5.519531 0 L 23.734375 0 C 37.949219 0 48.230469 -10.144531 48.230469 -24.148438 C 48.230469 -38.15625 37.949219 -48.300781 23.734375 -48.300781 Z M 23.527344 -9.660156 L 15.9375 -9.660156 L 15.9375 -38.570312 L 23.527344 -38.570312 C 31.808594 -38.570312 37.535156 -32.707031 37.535156 -24.148438 C 37.535156 -15.730469 31.808594 -9.660156 23.527344 -9.660156 Z M 23.527344 -9.660156 "/></g></g></g><g fill="#ffffff" fill-opacity="1"><g transform="translate(339.021245, 276.900563)"><g><path d="M 34.363281 -38.570312 L 34.363281 -48.300781 L 5.519531 -48.300781 L 5.519531 0 L 15.9375 0 L 15.9375 -18.492188 L 32.566406 -18.492188 L 32.566406 -27.945312 L 15.9375 -27.945312 L 15.9375 -38.570312 Z M 34.363281 -38.570312 "/></g></g></g><g clip-path="url(#0de0ac1574)"><path fill="#ffffff" d="M 246.582031 90.464844 C 246.582031 126.210938 214.140625 155.21875 174.132812 155.21875 C 155.582031 155.21875 137.890625 149.347656 123.222656 138.074219 C 119.140625 134.902344 115.335938 131.417969 112.160156 127.503906 C 116.160156 140.96875 122.242188 154.007812 130.4375 165.554688 C 143.304688 183.800781 161.191406 198.441406 183.429688 205.917969 L 183.429688 175.929688 C 183.429688 173.621094 185.3125 171.742188 187.628906 171.742188 C 209.984375 171.742188 230.261719 162.660156 244.933594 148.015625 C 259.523438 133.375 268.585938 113.25 268.585938 90.9375 C 268.585938 68.621094 259.484375 48.417969 244.894531 33.777344 C 230.222656 19.253906 209.984375 10.167969 187.628906 10.167969 C 165.269531 10.167969 145.109375 19.253906 130.4375 33.777344 C 115.769531 48.417969 106.667969 68.660156 106.667969 90.976562 C 106.667969 92.582031 106.785156 94.261719 106.785156 95.945312 C 108.394531 109.882812 116.554688 122.335938 128.4375 131.417969 C 129.851562 132.511719 131.339844 133.492188 132.832031 134.511719 L 132.832031 82.988281 C 132.832031 69.128906 139.222656 56.601562 149.382812 47.519531 C 159.464844 38.554688 173.347656 32.953125 188.726562 32.953125 C 200.101562 32.953125 210.886719 36.046875 219.949219 41.527344 C 229.046875 47.089844 236.304688 54.996094 240.617188 64.628906 C 242.5 68.621094 244.03125 72.886719 245.011719 77.078125 C 246.109375 81.5 246.582031 85.964844 246.582031 90.464844 Z M 246.582031 90.464844 " fill-opacity="1" fill-rule="nonzero"/></g><path fill="#ffffff" d="M 174.132812 146.765625 C 209.476562 146.765625 238.109375 121.550781 238.109375 90.464844 C 238.109375 86.589844 237.597656 82.792969 236.8125 79.113281 C 235.910156 75.316406 234.617188 71.636719 232.929688 68.152344 L 232.8125 68.03125 C 229.320312 60.046875 223.125 53.390625 215.554688 48.808594 C 207.867188 44.113281 198.492188 41.449219 188.726562 41.449219 C 175.546875 41.449219 163.582031 46.226562 154.992188 53.820312 C 146.597656 61.261719 141.304688 71.636719 141.304688 82.988281 L 141.304688 139.285156 C 151.265625 143.945312 162.640625 146.765625 174.132812 146.765625 Z M 172.957031 103.425781 C 171.464844 104.011719 169.859375 104.402344 168.171875 104.402344 C 161.070312 104.402344 155.382812 98.609375 155.382812 91.640625 C 155.382812 84.554688 161.070312 78.878906 168.171875 78.878906 C 175.152344 78.878906 180.957031 84.554688 180.957031 91.640625 C 180.957031 94.34375 180.058594 96.808594 178.644531 98.921875 C 178.449219 96.730469 176.566406 95.046875 174.371094 95.046875 C 171.976562 95.046875 169.976562 96.925781 169.976562 99.3125 C 169.9375 101.230469 171.230469 102.914062 172.957031 103.425781 Z M 207.160156 104.402344 C 200.0625 104.402344 194.375 98.609375 194.375 91.640625 C 194.375 84.554688 200.0625 78.878906 207.160156 78.878906 C 214.261719 78.878906 219.949219 84.554688 219.949219 91.640625 C 219.949219 94.34375 219.164062 96.808594 217.632812 98.921875 C 217.4375 96.730469 215.554688 95.046875 213.359375 95.046875 C 210.964844 95.046875 209.082031 96.925781 209.082031 99.3125 C 209.082031 101.191406 210.296875 102.914062 212.0625 103.386719 C 210.574219 104.011719 208.886719 104.402344 207.160156 104.402344 Z M 207.160156 104.402344 " fill-opacity="1" fill-rule="nonzero"/></svg>