<svg xmlns="http://www.w3.org/2000/svg" xmlns:xlink="http://www.w3.org/1999/xlink" width="500" zoomAndPan="magnify" viewBox="0 0 375 269.999989" height="360" preserveAspectRatio="xMidYMid meet" version="1.0"><defs><g/><clipPath id="eb1eba194d"><path d="M 130.714844 0 L 244.714844 0 L 244.714844 187 L 130.714844 187 Z M 130.714844 0 " clip-rule="nonzero"/></clipPath></defs><g fill="#ffffff" fill-opacity="1"><g transform="translate(-1.113298, 268.845016)"><g><path d="M 31.976562 -46.820312 C 25.785156 -46.820312 20.273438 -44.191406 16.792969 -40.121094 L 14.417969 -45.804688 L 5.9375 -45.804688 L 5.9375 0 L 18.320312 0 L 18.320312 -24.003906 C 18.320312 -31.382812 22.222656 -35.964844 28.585938 -35.964844 C 33.929688 -35.964844 36.558594 -32.65625 36.558594 -25.699219 L 36.558594 0 L 48.941406 0 L 48.941406 -27.734375 C 48.941406 -39.355469 42.410156 -46.820312 31.976562 -46.820312 Z M 31.976562 -46.820312 "/></g></g></g><g fill="#ffffff" fill-opacity="1"><g transform="translate(53.255403, 268.845016)"><g><path d="M 5.9375 0 L 18.320312 0 L 18.320312 -62.257812 L 5.9375 -62.257812 Z M 5.9375 0 "/></g></g></g><g fill="#ffffff" fill-opacity="1"><g transform="translate(77.51351, 268.845016)"><g><path d="M 58.015625 -46.820312 C 52.164062 -46.820312 46.988281 -43.9375 43.851562 -39.527344 C 41.136719 -44.105469 36.386719 -46.820312 30.535156 -46.820312 C 25.105469 -46.820312 20.101562 -44.191406 16.878906 -40.121094 L 14.589844 -45.804688 L 5.9375 -45.804688 L 5.9375 0 L 18.320312 0 L 18.320312 -24.765625 C 18.320312 -31.890625 21.628906 -35.964844 27.226562 -35.964844 C 31.636719 -35.964844 34.011719 -32.742188 34.011719 -26.632812 L 34.011719 0 L 46.058594 0 L 46.058594 -24.765625 C 46.058594 -31.890625 49.363281 -35.964844 54.878906 -35.964844 C 59.375 -35.964844 61.75 -32.742188 61.75 -26.632812 L 61.75 0 L 74.132812 0 L 74.132812 -28.667969 C 74.132812 -39.441406 67.515625 -46.820312 58.015625 -46.820312 Z M 58.015625 -46.820312 "/></g></g></g><g fill="#ffffff" fill-opacity="1"><g transform="translate(157.073323, 268.845016)"><g><path d="M 43.257812 -45.804688 L 41.984375 -41.476562 C 38 -44.953125 32.824219 -47.074219 26.886719 -47.074219 C 13.148438 -47.074219 2.882812 -36.726562 2.882812 -22.902344 C 2.882812 -9.074219 13.148438 1.355469 26.886719 1.355469 C 32.742188 1.355469 37.828125 -0.679688 41.730469 -4.15625 L 42.835938 0 L 52.503906 0 L 52.503906 -45.804688 Z M 27.90625 -10.347656 C 20.695312 -10.347656 15.4375 -15.777344 15.4375 -22.902344 C 15.4375 -30.109375 20.695312 -35.453125 27.90625 -35.453125 C 35.117188 -35.453125 40.375 -30.109375 40.375 -22.902344 C 40.375 -15.691406 35.117188 -10.347656 27.90625 -10.347656 Z M 27.90625 -10.347656 "/></g></g></g><g fill="#ffffff" fill-opacity="1"><g transform="translate(215.598136, 268.845016)"><g><path d="M 28.328125 -11.027344 C 23.75 -11.027344 21.203125 -13.570312 21.203125 -17.980469 L 21.203125 -35.792969 L 33.671875 -35.792969 L 33.671875 -45.804688 L 21.035156 -45.804688 L 21.035156 -57.675781 L 18.660156 -57.675781 L 0.59375 -38.507812 L 0.59375 -35.792969 L 8.820312 -35.792969 L 8.820312 -16.285156 C 8.820312 -6.191406 15.011719 0 25.105469 0 L 33.929688 0 L 33.929688 -11.027344 Z M 28.328125 -11.027344 "/></g></g></g><g fill="#ffffff" fill-opacity="1"><g transform="translate(252.070125, 268.845016)"><g><path d="M 5.9375 -51.910156 L 18.234375 -51.910156 L 18.234375 -63.359375 L 5.9375 -63.359375 Z M 5.9375 0 L 18.320312 0 L 18.320312 -45.804688 L 5.9375 -45.804688 Z M 5.9375 0 "/></g></g></g><g fill="#ffffff" fill-opacity="1"><g transform="translate(276.328231, 268.845016)"><g><path d="M 27.226562 1.355469 C 39.1875 1.355469 48.601562 -6.445312 50.722656 -17.980469 L 38.253906 -17.980469 C 36.132812 -13.0625 32.230469 -10.347656 27.226562 -10.347656 C 20.609375 -10.347656 15.4375 -15.859375 15.4375 -22.902344 C 15.4375 -30.027344 20.527344 -35.453125 27.226562 -35.453125 C 32.148438 -35.453125 36.304688 -32.742188 38.253906 -28.246094 L 50.550781 -28.246094 C 48.347656 -39.527344 39.1875 -47.074219 27.3125 -47.074219 C 13.402344 -47.074219 2.882812 -36.726562 2.882812 -22.984375 C 2.882812 -9.246094 13.402344 1.355469 27.226562 1.355469 Z M 27.226562 1.355469 "/></g></g></g><g fill="#ffffff" fill-opacity="1"><g transform="translate(329.339838, 268.845016)"><g><path d="M 22.136719 1.355469 C 33.757812 1.355469 41.390625 -4.75 41.390625 -14.082031 C 41.390625 -25.277344 31.808594 -26.804688 24.34375 -28.160156 C 19.59375 -29.007812 15.691406 -29.773438 15.691406 -32.824219 C 15.691406 -35.453125 17.980469 -37.152344 21.796875 -37.152344 C 26.125 -37.152344 28.667969 -35.371094 28.753906 -31.722656 L 40.542969 -31.722656 C 40.460938 -40.882812 33.164062 -47.074219 22.136719 -47.074219 C 11.113281 -47.074219 3.730469 -41.054688 3.730469 -32.402344 C 3.730469 -21.628906 13.0625 -19.679688 20.355469 -18.40625 C 25.191406 -17.640625 29.179688 -16.710938 29.179688 -13.570312 C 29.179688 -10.519531 26.039062 -8.90625 22.648438 -8.90625 C 18.234375 -8.90625 15.097656 -10.941406 15.011719 -15.011719 L 2.96875 -15.011719 C 2.96875 -5.257812 10.6875 1.355469 22.136719 1.355469 Z M 22.136719 1.355469 "/></g></g></g><g clip-path="url(#eb1eba194d)"><path fill="#ffffff" d="M 150.929688 45.210938 L 210.609375 105.082031 C 211.308594 105.785156 212.507812 105.289062 212.507812 104.292969 L 212.507812 81.46875 C 212.507812 81.171875 212.390625 80.886719 212.183594 80.675781 L 132.617188 0.851562 C 131.917969 0.148438 130.71875 0.648438 130.71875 1.644531 L 130.71875 128.792969 C 130.71875 129.089844 130.835938 129.371094 131.042969 129.582031 L 164.929688 163.574219 C 165.632812 164.277344 166.828125 163.78125 166.828125 162.785156 L 166.828125 139.960938 C 166.828125 139.664062 166.710938 139.382812 166.503906 139.171875 L 149.359375 121.96875 C 149.148438 121.761719 149.03125 121.476562 149.03125 121.179688 L 149.03125 46.003906 C 149.03125 45.007812 150.230469 44.507812 150.929688 45.210938 Z M 210.5 23.925781 L 244.386719 57.917969 C 244.597656 58.128906 244.714844 58.410156 244.714844 58.707031 L 244.714844 185.855469 C 244.714844 186.851562 243.515625 187.351562 242.816406 186.644531 L 163.25 106.824219 C 163.039062 106.613281 162.921875 106.328125 162.921875 106.03125 L 162.921875 83.207031 C 162.921875 82.210938 164.121094 81.714844 164.824219 82.417969 L 224.5 142.285156 C 225.203125 142.992188 226.398438 142.492188 226.398438 141.496094 L 226.398438 66.320312 C 226.398438 66.023438 226.28125 65.738281 226.074219 65.53125 L 208.929688 48.332031 C 208.71875 48.121094 208.601562 47.835938 208.601562 47.539062 L 208.601562 24.714844 C 208.601562 23.71875 209.800781 23.222656 210.5 23.925781 " fill-opacity="1" fill-rule="nonzero"/></g></svg>