<svg xmlns="http://www.w3.org/2000/svg" xmlns:xlink="http://www.w3.org/1999/xlink" width="400" zoomAndPan="magnify" viewBox="0 0 300 74.999997" height="100" preserveAspectRatio="xMidYMid meet" version="1.0"><defs><g/><clipPath id="3c08e64bc6"><path d="M 0 0 L 45.75 0 L 45.75 75 L 0 75 Z M 0 0 " clip-rule="nonzero"/></clipPath></defs><g fill="#000000" fill-opacity="1"><g transform="translate(56.297409, 57.305567)"><g><path d="M 20.941406 -30.664062 C 16.886719 -30.664062 13.277344 -28.941406 11 -26.277344 L 9.445312 -30 L 3.890625 -30 L 3.890625 0 L 12 0 L 12 -15.722656 C 12 -20.554688 14.554688 -23.554688 18.722656 -23.554688 C 22.222656 -23.554688 23.941406 -21.386719 23.941406 -16.832031 L 23.941406 0 L 32.054688 0 L 32.054688 -18.164062 C 32.054688 -25.777344 27.777344 -30.664062 20.941406 -30.664062 Z M 20.941406 -30.664062 "/></g></g></g><g fill="#000000" fill-opacity="1"><g transform="translate(91.902996, 57.305567)"><g><path d="M 3.890625 0 L 12 0 L 12 -40.777344 L 3.890625 -40.777344 Z M 3.890625 0 "/></g></g></g><g fill="#000000" fill-opacity="1"><g transform="translate(107.78942, 57.305567)"><g><path d="M 37.996094 -30.664062 C 34.164062 -30.664062 30.777344 -28.777344 28.71875 -25.886719 C 26.941406 -28.886719 23.832031 -30.664062 20 -30.664062 C 16.445312 -30.664062 13.164062 -28.941406 11.054688 -26.277344 L 9.554688 -30 L 3.890625 -30 L 3.890625 0 L 12 0 L 12 -16.222656 C 12 -20.886719 14.164062 -23.554688 17.832031 -23.554688 C 20.722656 -23.554688 22.277344 -21.441406 22.277344 -17.445312 L 22.277344 0 L 30.164062 0 L 30.164062 -16.222656 C 30.164062 -20.886719 32.332031 -23.554688 35.941406 -23.554688 C 38.886719 -23.554688 40.441406 -21.441406 40.441406 -17.445312 L 40.441406 0 L 48.554688 0 L 48.554688 -18.777344 C 48.554688 -25.832031 44.21875 -30.664062 37.996094 -30.664062 Z M 37.996094 -30.664062 "/></g></g></g><g fill="#000000" fill-opacity="1"><g transform="translate(159.892443, 57.305567)"><g><path d="M 28.332031 -30 L 27.5 -27.164062 C 24.886719 -29.441406 21.5 -30.832031 17.609375 -30.832031 C 8.609375 -30.832031 1.890625 -24.054688 1.890625 -15 C 1.890625 -5.945312 8.609375 0.890625 17.609375 0.890625 C 21.441406 0.890625 24.777344 -0.445312 27.332031 -2.722656 L 28.054688 0 L 34.386719 0 L 34.386719 -30 Z M 18.277344 -6.777344 C 13.554688 -6.777344 10.109375 -10.332031 10.109375 -15 C 10.109375 -19.722656 13.554688 -23.222656 18.277344 -23.222656 C 23 -23.222656 26.441406 -19.722656 26.441406 -15 C 26.441406 -10.277344 23 -6.777344 18.277344 -6.777344 Z M 18.277344 -6.777344 "/></g></g></g><g fill="#000000" fill-opacity="1"><g transform="translate(198.219825, 57.305567)"><g><path d="M 18.554688 -7.222656 C 15.554688 -7.222656 13.886719 -8.886719 13.886719 -11.777344 L 13.886719 -23.441406 L 22.054688 -23.441406 L 22.054688 -30 L 13.777344 -30 L 13.777344 -37.777344 L 12.222656 -37.777344 L 0.390625 -25.222656 L 0.390625 -23.441406 L 5.777344 -23.441406 L 5.777344 -10.667969 C 5.777344 -4.054688 9.832031 0 16.445312 0 L 22.222656 0 L 22.222656 -7.222656 Z M 18.554688 -7.222656 "/></g></g></g><g fill="#000000" fill-opacity="1"><g transform="translate(222.105005, 57.305567)"><g><path d="M 3.890625 -34 L 11.945312 -34 L 11.945312 -41.496094 L 3.890625 -41.496094 Z M 3.890625 0 L 12 0 L 12 -30 L 3.890625 -30 Z M 3.890625 0 "/></g></g></g><g fill="#000000" fill-opacity="1"><g transform="translate(237.991429, 57.305567)"><g><path d="M 17.832031 0.890625 C 25.664062 0.890625 31.832031 -4.222656 33.21875 -11.777344 L 25.054688 -11.777344 C 23.664062 -8.554688 21.109375 -6.777344 17.832031 -6.777344 C 13.5 -6.777344 10.109375 -10.386719 10.109375 -15 C 10.109375 -19.664062 13.445312 -23.222656 17.832031 -23.222656 C 21.054688 -23.222656 23.777344 -21.441406 25.054688 -18.5 L 33.109375 -18.5 C 31.664062 -25.886719 25.664062 -30.832031 17.886719 -30.832031 C 8.777344 -30.832031 1.890625 -24.054688 1.890625 -15.054688 C 1.890625 -6.054688 8.777344 0.890625 17.832031 0.890625 Z M 17.832031 0.890625 "/></g></g></g><g fill="#000000" fill-opacity="1"><g transform="translate(272.70828, 57.305567)"><g><path d="M 14.5 0.890625 C 22.109375 0.890625 27.109375 -3.109375 27.109375 -9.222656 C 27.109375 -16.554688 20.832031 -17.554688 15.945312 -18.445312 C 12.832031 -19 10.277344 -19.5 10.277344 -21.5 C 10.277344 -23.222656 11.777344 -24.332031 14.277344 -24.332031 C 17.109375 -24.332031 18.777344 -23.164062 18.832031 -20.777344 L 26.554688 -20.777344 C 26.5 -26.777344 21.722656 -30.832031 14.5 -30.832031 C 7.277344 -30.832031 2.445312 -26.886719 2.445312 -21.222656 C 2.445312 -14.164062 8.554688 -12.886719 13.332031 -12.054688 C 16.5 -11.554688 19.109375 -10.945312 19.109375 -8.886719 C 19.109375 -6.886719 17.054688 -5.832031 14.832031 -5.832031 C 11.945312 -5.832031 9.886719 -7.167969 9.832031 -9.832031 L 1.945312 -9.832031 C 1.945312 -3.445312 7 0.890625 14.5 0.890625 Z M 14.5 0.890625 "/></g></g></g><g clip-path="url(#3c08e64bc6)"><path fill="#03989e" d="M 8.113281 18.082031 L 32.0625 42.035156 C 32.34375 42.316406 32.824219 42.113281 32.824219 41.71875 L 32.824219 32.585938 C 32.824219 32.46875 32.777344 32.355469 32.695312 32.269531 L 0.761719 0.339844 C 0.480469 0.0585938 0 0.257812 0 0.65625 L 0 51.515625 C 0 51.636719 0.046875 51.75 0.132812 51.832031 L 13.730469 65.433594 C 14.011719 65.714844 14.492188 65.515625 14.492188 65.117188 L 14.492188 55.984375 C 14.492188 55.867188 14.445312 55.753906 14.363281 55.671875 L 7.480469 48.789062 C 7.398438 48.703125 7.351562 48.589844 7.351562 48.472656 L 7.351562 18.398438 C 7.351562 18 7.832031 17.800781 8.113281 18.082031 Z M 32.019531 9.566406 L 45.617188 23.167969 C 45.703125 23.25 45.75 23.363281 45.75 23.484375 L 45.75 74.34375 C 45.75 74.742188 45.269531 74.941406 44.988281 74.660156 L 13.054688 42.730469 C 12.972656 42.644531 12.925781 42.53125 12.925781 42.414062 L 12.925781 33.28125 C 12.925781 32.886719 13.40625 32.683594 13.6875 32.964844 L 37.636719 56.914062 C 37.917969 57.199219 38.398438 57 38.398438 56.601562 L 38.398438 26.527344 C 38.398438 26.410156 38.351562 26.296875 38.269531 26.210938 L 31.386719 19.332031 C 31.304688 19.246094 31.257812 19.132812 31.257812 19.015625 L 31.257812 9.882812 C 31.257812 9.484375 31.738281 9.285156 32.019531 9.566406 " fill-opacity="1" fill-rule="nonzero"/></g></svg>