<svg xmlns="http://www.w3.org/2000/svg" xmlns:xlink="http://www.w3.org/1999/xlink" width="40" zoomAndPan="magnify" viewBox="0 0 30 30.000001" height="40" preserveAspectRatio="xMidYMid meet" version="1.0"><defs><clipPath id="839d02b30b"><path d="M 6.144531 0 L 23.566406 0 L 23.566406 29 L 6.144531 29 Z M 6.144531 0 " clip-rule="nonzero"/></clipPath></defs><g clip-path="url(#839d02b30b)"><path fill="#03989e" d="M 9.234375 7.003906 L 18.351562 16.269531 C 18.460938 16.378906 18.644531 16.300781 18.644531 16.148438 L 18.644531 12.613281 C 18.644531 12.570312 18.625 12.523438 18.59375 12.492188 L 6.4375 0.136719 C 6.328125 0.0273438 6.144531 0.105469 6.144531 0.257812 L 6.144531 19.941406 C 6.144531 19.984375 6.164062 20.03125 6.195312 20.0625 L 11.375 25.324219 C 11.480469 25.433594 11.664062 25.355469 11.664062 25.203125 L 11.664062 21.667969 C 11.664062 21.625 11.644531 21.578125 11.613281 21.546875 L 8.992188 18.882812 C 8.960938 18.851562 8.945312 18.808594 8.945312 18.761719 L 8.945312 7.125 C 8.945312 6.972656 9.128906 6.894531 9.234375 7.003906 Z M 18.335938 3.707031 L 23.515625 8.96875 C 23.546875 9.003906 23.5625 9.046875 23.5625 9.09375 L 23.5625 28.773438 C 23.5625 28.925781 23.382812 29.003906 23.273438 28.894531 L 11.117188 16.539062 C 11.085938 16.507812 11.066406 16.464844 11.066406 16.417969 L 11.066406 12.882812 C 11.066406 12.730469 11.25 12.652344 11.355469 12.761719 L 20.476562 22.027344 C 20.582031 22.136719 20.765625 22.0625 20.765625 21.90625 L 20.765625 10.269531 C 20.765625 10.226562 20.746094 10.179688 20.714844 10.148438 L 18.097656 7.484375 C 18.0625 7.453125 18.046875 7.410156 18.046875 7.363281 L 18.046875 3.828125 C 18.046875 3.675781 18.230469 3.597656 18.335938 3.707031 " fill-opacity="1" fill-rule="nonzero"/></g></svg>