<svg xmlns="http://www.w3.org/2000/svg" xmlns:xlink="http://www.w3.org/1999/xlink" width="500" zoomAndPan="magnify" viewBox="0 0 375 262.499992" height="350" preserveAspectRatio="xMidYMid meet" version="1.0"><defs><g/><clipPath id="e36302b97e"><path d="M 97.464844 0 L 271.882812 0 L 271.882812 166.933594 L 97.464844 166.933594 Z M 97.464844 0 " clip-rule="nonzero"/></clipPath></defs><g clip-path="url(#e36302b97e)"><path fill="#004aad" d="M 133.304688 0 L 233.53125 100.316406 C 251.375 96.574219 264.898438 80.644531 264.898438 61.703125 L 264.898438 39.460938 C 264.898438 17.773438 247.140625 0 225.472656 0 Z M 97.46875 60.710938 L 203.566406 166.933594 L 271.875 166.933594 L 165.75 60.710938 Z M 168.40625 166.933594 L 109.96875 108.441406 L 109.96875 166.933594 Z M 168.40625 166.933594 " fill-opacity="1" fill-rule="evenodd"/></g><g fill="#000000" fill-opacity="1"><g transform="translate(-1.395868, 259.913931)"><g><path d="M 3.65625 -50.21875 L 21.609375 -50.21875 C 26.441406 -50.21875 30.378906 -48.925781 33.421875 -46.34375 C 36.460938 -43.769531 37.984375 -40.09375 37.984375 -35.3125 C 37.984375 -31.613281 37.0625 -28.515625 35.21875 -26.015625 C 33.375 -23.523438 30.867188 -21.773438 27.703125 -20.765625 L 44.984375 0 L 30.4375 0 L 15.09375 -19.84375 L 15.09375 0 L 3.65625 0 Z M 15.09375 -27.9375 L 16.4375 -27.9375 C 17.488281 -27.9375 18.378906 -27.957031 19.109375 -28 C 19.835938 -28.039062 20.671875 -28.179688 21.609375 -28.421875 C 22.546875 -28.671875 23.296875 -29.019531 23.859375 -29.46875 C 24.429688 -29.914062 24.921875 -30.5625 25.328125 -31.40625 C 25.734375 -32.257812 25.9375 -33.296875 25.9375 -34.515625 C 25.9375 -35.734375 25.734375 -36.769531 25.328125 -37.625 C 24.921875 -38.476562 24.429688 -39.125 23.859375 -39.5625 C 23.296875 -40.007812 22.546875 -40.351562 21.609375 -40.59375 C 20.671875 -40.84375 19.835938 -40.988281 19.109375 -41.03125 C 18.378906 -41.070312 17.488281 -41.09375 16.4375 -41.09375 L 15.09375 -41.09375 Z M 15.09375 -27.9375 "/></g></g></g><g fill="#000000" fill-opacity="1"><g transform="translate(45.238519, 259.913931)"><g><path d="M 32.390625 -50.21875 L 32.390625 -40.171875 L 15.09375 -40.171875 L 15.09375 -30.1875 L 31.65625 -30.1875 L 31.65625 -20.15625 L 15.09375 -20.15625 L 15.09375 -10.046875 L 32.390625 -10.046875 L 32.390625 0 L 3.65625 0 L 3.65625 -50.21875 Z M 32.390625 -50.21875 "/></g></g></g><g fill="#000000" fill-opacity="1"><g transform="translate(83.59321, 259.913931)"><g><path d="M 3.65625 -50.21875 L 18.203125 -50.21875 C 25.179688 -50.21875 31.144531 -47.832031 36.09375 -43.0625 C 41.050781 -38.300781 43.53125 -32.328125 43.53125 -25.140625 C 43.53125 -17.921875 41.0625 -11.925781 36.125 -7.15625 C 31.195312 -2.382812 25.222656 0 18.203125 0 L 3.65625 0 Z M 15.09375 -10.234375 L 16.859375 -10.234375 C 21.035156 -10.234375 24.453125 -11.640625 27.109375 -14.453125 C 29.773438 -17.273438 31.128906 -20.816406 31.171875 -25.078125 C 31.171875 -29.335938 29.835938 -32.890625 27.171875 -35.734375 C 24.515625 -38.578125 21.078125 -40 16.859375 -40 L 15.09375 -40 Z M 15.09375 -10.234375 "/></g></g></g><g fill="#000000" fill-opacity="1"><g transform="translate(131.566956, 259.913931)"><g><path d="M 29.15625 -50.21875 L 49.4375 0 L 37.140625 0 L 33.421875 -10.046875 L 14.3125 -10.046875 L 10.59375 0 L -1.703125 0 L 18.5625 -50.21875 Z M 29.53125 -20.09375 L 23.921875 -34.703125 L 23.796875 -34.703125 L 18.203125 -20.09375 Z M 29.53125 -20.09375 "/></g></g></g><g fill="#000000" fill-opacity="1"><g transform="translate(182.341196, 259.913931)"><g><path d="M 30.375 -10.34375 C 32.125 -10.34375 33.816406 -10.609375 35.453125 -11.140625 C 37.097656 -11.671875 38.304688 -12.175781 39.078125 -12.65625 L 40.234375 -13.453125 L 45.109375 -3.71875 C 44.941406 -3.59375 44.71875 -3.425781 44.4375 -3.21875 C 44.15625 -3.019531 43.492188 -2.644531 42.453125 -2.09375 C 41.421875 -1.550781 40.316406 -1.078125 39.140625 -0.671875 C 37.960938 -0.265625 36.421875 0.0976562 34.515625 0.421875 C 32.609375 0.742188 30.640625 0.90625 28.609375 0.90625 C 23.941406 0.90625 19.519531 -0.238281 15.34375 -2.53125 C 11.164062 -4.820312 7.796875 -7.972656 5.234375 -11.984375 C 2.679688 -16.003906 1.40625 -20.347656 1.40625 -25.015625 C 1.40625 -28.546875 2.15625 -31.9375 3.65625 -35.1875 C 5.15625 -38.4375 7.148438 -41.21875 9.640625 -43.53125 C 12.140625 -45.84375 15.050781 -47.6875 18.375 -49.0625 C 21.707031 -50.445312 25.117188 -51.140625 28.609375 -51.140625 C 31.859375 -51.140625 34.851562 -50.753906 37.59375 -49.984375 C 40.332031 -49.210938 42.269531 -48.441406 43.40625 -47.671875 L 45.109375 -46.515625 L 40.234375 -36.765625 C 39.953125 -37.015625 39.523438 -37.3125 38.953125 -37.65625 C 38.390625 -38 37.253906 -38.453125 35.546875 -39.015625 C 33.847656 -39.585938 32.125 -39.875 30.375 -39.875 C 27.613281 -39.875 25.132812 -39.425781 22.9375 -38.53125 C 20.75 -37.632812 19.015625 -36.457031 17.734375 -35 C 16.460938 -33.539062 15.488281 -31.96875 14.8125 -30.28125 C 14.144531 -28.601562 13.8125 -26.890625 13.8125 -25.140625 C 13.8125 -21.328125 15.242188 -17.90625 18.109375 -14.875 C 20.972656 -11.851562 25.0625 -10.34375 30.375 -10.34375 Z M 30.375 -10.34375 "/></g></g></g><g fill="#000000" fill-opacity="1"><g transform="translate(231.228147, 259.913931)"><g><path d="M 0.484375 -40.171875 L 0.484375 -50.21875 L 35.796875 -50.21875 L 35.796875 -40.171875 L 23.859375 -40.171875 L 23.859375 0 L 12.421875 0 L 12.421875 -40.171875 Z M 0.484375 -40.171875 "/></g></g></g><g fill="#000000" fill-opacity="1"><g transform="translate(270.556912, 259.913931)"><g><path d="M 1.40625 -25.140625 C 1.40625 -32.398438 3.878906 -38.546875 8.828125 -43.578125 C 13.773438 -48.617188 19.738281 -51.140625 26.71875 -51.140625 C 33.738281 -51.140625 39.703125 -48.628906 44.609375 -43.609375 C 49.523438 -38.597656 51.984375 -32.441406 51.984375 -25.140625 C 51.984375 -17.796875 49.566406 -11.617188 44.734375 -6.609375 C 39.910156 -1.597656 33.90625 0.90625 26.71875 0.90625 C 19.375 0.90625 13.316406 -1.578125 8.546875 -6.546875 C 3.785156 -11.515625 1.40625 -17.710938 1.40625 -25.140625 Z M 13.75 -25.140625 C 13.75 -22.503906 14.15625 -20.097656 14.96875 -17.921875 C 15.78125 -15.753906 17.203125 -13.921875 19.234375 -12.421875 C 21.265625 -10.921875 23.757812 -10.171875 26.71875 -10.171875 C 30.976562 -10.171875 34.191406 -11.628906 36.359375 -14.546875 C 38.535156 -17.472656 39.625 -21.003906 39.625 -25.140625 C 39.625 -29.242188 38.519531 -32.765625 36.3125 -35.703125 C 34.101562 -38.640625 30.90625 -40.109375 26.71875 -40.109375 C 22.582031 -40.109375 19.382812 -38.640625 17.125 -35.703125 C 14.875 -32.765625 13.75 -29.242188 13.75 -25.140625 Z M 13.75 -25.140625 "/></g></g></g><g fill="#000000" fill-opacity="1"><g transform="translate(326.992997, 259.913931)"><g><path d="M 3.65625 -50.21875 L 21.609375 -50.21875 C 26.441406 -50.21875 30.378906 -48.925781 33.421875 -46.34375 C 36.460938 -43.769531 37.984375 -40.09375 37.984375 -35.3125 C 37.984375 -31.613281 37.0625 -28.515625 35.21875 -26.015625 C 33.375 -23.523438 30.867188 -21.773438 27.703125 -20.765625 L 44.984375 0 L 30.4375 0 L 15.09375 -19.84375 L 15.09375 0 L 3.65625 0 Z M 15.09375 -27.9375 L 16.4375 -27.9375 C 17.488281 -27.9375 18.378906 -27.957031 19.109375 -28 C 19.835938 -28.039062 20.671875 -28.179688 21.609375 -28.421875 C 22.546875 -28.671875 23.296875 -29.019531 23.859375 -29.46875 C 24.429688 -29.914062 24.921875 -30.5625 25.328125 -31.40625 C 25.734375 -32.257812 25.9375 -33.296875 25.9375 -34.515625 C 25.9375 -35.734375 25.734375 -36.769531 25.328125 -37.625 C 24.921875 -38.476562 24.429688 -39.125 23.859375 -39.5625 C 23.296875 -40.007812 22.546875 -40.351562 21.609375 -40.59375 C 20.671875 -40.84375 19.835938 -40.988281 19.109375 -41.03125 C 18.378906 -41.070312 17.488281 -41.09375 16.4375 -41.09375 L 15.09375 -41.09375 Z M 15.09375 -27.9375 "/></g></g></g></svg>