<svg xmlns="http://www.w3.org/2000/svg" xmlns:xlink="http://www.w3.org/1999/xlink" width="40" zoomAndPan="magnify" viewBox="0 0 30 47.25" height="63" preserveAspectRatio="xMidYMid meet" version="1.0"><defs><clipPath id="d31a49e5cb"><path d="M 0.234375 0.1875 L 29.765625 0.1875 L 29.765625 46.511719 L 0.234375 46.511719 Z M 0.234375 0.1875 " clip-rule="nonzero"/></clipPath></defs><g clip-path="url(#d31a49e5cb)"><path fill="#03989e" d="M 29.660156 31.703125 C 29.710938 31.960938 29.734375 32.230469 29.734375 32.507812 C 29.734375 32.695312 29.722656 32.882812 29.699219 33.066406 C 29.578125 33.972656 29.171875 34.789062 28.570312 35.417969 C 28.5625 35.425781 28.558594 35.429688 28.550781 35.433594 L 27.5 36.027344 L 27.015625 36.304688 L 26.484375 36.605469 L 24.769531 37.578125 L 21.257812 39.574219 L 19.683594 40.464844 L 10.265625 45.816406 L 8.757812 46.671875 C 8.707031 46.699219 8.640625 46.660156 8.640625 46.601562 L 8.640625 43.683594 C 8.640625 43.652344 8.65625 43.628906 8.679688 43.613281 L 10.265625 42.714844 L 19.683594 37.367188 L 21.257812 36.472656 L 22.039062 36.027344 L 22.742188 35.628906 L 24.769531 34.476562 L 26.972656 33.226562 C 27.535156 32.769531 27.535156 31.980469 26.972656 31.519531 L 24.90625 30.34375 C 24.882812 30.332031 24.851562 30.332031 24.828125 30.34375 L 21.363281 32.3125 L 21.253906 32.375 L 21.160156 32.429688 L 19.683594 33.265625 L 18.425781 33.980469 L 10.378906 38.546875 C 10.328125 38.578125 10.261719 38.539062 10.261719 38.480469 L 10.261719 35.558594 C 10.261719 35.53125 10.277344 35.503906 10.304688 35.492188 L 15.695312 32.429688 L 18.425781 30.878906 L 19.683594 30.164062 L 21.253906 29.273438 L 22.015625 28.839844 C 22.066406 28.8125 22.066406 28.734375 22.015625 28.703125 L 21.253906 28.273438 L 19.683594 27.378906 L 19.265625 27.144531 L 10.261719 22.03125 L 8.640625 21.109375 L 8.617188 21.097656 L 8.480469 21.019531 L 5.554688 19.359375 C 5.53125 19.34375 5.5 19.34375 5.476562 19.359375 L 3.027344 20.75 C 2.253906 21.203125 2.671875 22.046875 3.027344 22.132812 L 4.773438 23.121094 L 7.328125 24.574219 L 8.640625 25.320312 L 10.261719 26.238281 L 15.4375 29.179688 C 15.492188 29.207031 15.492188 29.285156 15.4375 29.316406 L 12.867188 30.777344 C 12.839844 30.789062 12.8125 30.789062 12.789062 30.777344 L 10.261719 29.34375 L 8.640625 28.421875 L 3.804688 25.675781 L 2.988281 25.210938 L 2.042969 24.671875 L 1.242188 24.21875 C 0.785156 23.671875 0.464844 23.007812 0.332031 22.277344 C 0.292969 22.035156 0.265625 21.777344 0.265625 21.519531 C 0.265625 21.210938 0.300781 20.910156 0.363281 20.621094 C 0.542969 19.789062 0.96875 19.054688 1.554688 18.488281 L 1.554688 18.484375 L 2.46875 17.96875 L 2.667969 17.855469 C 2.71875 17.824219 2.71875 17.75 2.667969 17.71875 L 1.160156 16.863281 L 1.15625 16.859375 C 0.765625 16.359375 0.488281 15.769531 0.355469 15.121094 C 0.296875 14.84375 0.269531 14.558594 0.269531 14.265625 C 0.269531 13.9375 0.304688 13.621094 0.375 13.3125 C 0.535156 12.613281 0.871094 11.980469 1.332031 11.464844 C 1.332031 11.464844 1.332031 11.464844 1.335938 11.464844 L 2.464844 10.820312 L 2.988281 10.523438 L 3.675781 10.132812 L 5.195312 9.269531 L 8.640625 7.3125 L 10.265625 6.390625 L 19.6875 1.042969 L 21.140625 0.21875 C 21.191406 0.1875 21.257812 0.226562 21.257812 0.285156 L 21.257812 3.207031 C 21.257812 3.234375 21.242188 3.261719 21.214844 3.273438 L 19.683594 4.144531 L 10.265625 9.492188 L 8.640625 10.414062 L 7.925781 10.820312 L 7.296875 11.179688 L 5.195312 12.371094 L 3.027344 13.601562 C 2.414062 14.109375 2.882812 14.738281 3.027344 14.820312 L 5.480469 16.214844 C 5.503906 16.226562 5.535156 16.226562 5.558594 16.214844 L 8.636719 14.464844 L 8.640625 14.460938 L 8.757812 14.394531 L 10.265625 13.542969 L 11.488281 12.847656 L 19.566406 8.257812 C 19.621094 8.230469 19.683594 8.269531 19.683594 8.328125 L 19.683594 11.246094 C 19.683594 11.277344 19.671875 11.300781 19.644531 11.316406 L 14.21875 14.394531 L 11.488281 15.945312 L 10.261719 16.644531 L 8.640625 17.566406 L 8.371094 17.71875 C 8.316406 17.746094 8.316406 17.824219 8.371094 17.855469 L 8.640625 18.007812 L 10.261719 18.929688 L 11.210938 19.46875 L 19.683594 24.28125 L 21.253906 25.171875 L 21.359375 25.230469 L 21.996094 25.59375 L 24.828125 27.199219 C 24.851562 27.214844 24.882812 27.214844 24.90625 27.199219 L 26.972656 26.027344 C 27.328125 25.777344 27.484375 25.148438 26.972656 24.738281 L 25.238281 23.753906 L 22.605469 22.261719 L 21.253906 21.492188 L 19.683594 20.601562 L 14.574219 17.699219 C 14.519531 17.667969 14.519531 17.589844 14.574219 17.5625 L 17.144531 16.101562 C 17.167969 16.085938 17.199219 16.085938 17.222656 16.101562 L 19.683594 17.5 L 21.257812 18.390625 L 25.972656 21.070312 L 27.015625 21.660156 L 27.96875 22.203125 L 28.882812 22.722656 C 28.894531 22.730469 28.902344 22.738281 28.910156 22.746094 C 29.285156 23.253906 29.550781 23.851562 29.667969 24.5 C 29.710938 24.746094 29.734375 24.996094 29.734375 25.253906 C 29.734375 25.597656 29.695312 25.925781 29.621094 26.242188 C 29.429688 27.039062 29.011719 27.75 28.441406 28.296875 C 28.222656 28.503906 27.984375 28.691406 27.726562 28.847656 C 27.707031 28.859375 27.6875 28.871094 27.667969 28.882812 C 28.683594 29.480469 29.425781 30.5 29.660156 31.703125 Z M 29.660156 31.703125 " fill-opacity="1" fill-rule="nonzero"/></g></svg>