<svg xmlns="http://www.w3.org/2000/svg" viewBox="0 0 201 201"><defs><style>.cls-1{fill:#001529;}.cls-2{fill:#9e5eff;}</style></defs><g id="Layer_2" data-name="Layer 2"><g id="Layer_1-2" data-name="Layer 1"><rect class="cls-1" width="201" height="201" rx="8"/><path class="cls-2" d="M102,78.34a32.81,32.81,0,0,0-26.9-11.63,28.47,28.47,0,0,0-17.42,5.15A40.88,40.88,0,0,0,48.5,82.13V68.5h-29v109h29V106.07A17.16,17.16,0,0,1,52.34,99a16.7,16.7,0,0,1,12.45-4.47,18.13,18.13,0,0,1,13.08,4.42,16.43,16.43,0,0,1,4.62,12.42V177.5h29V111.22Q111.5,90,102,78.34Z"/><path id="Path_1179" data-name="Path 1179" class="cls-2" d="M168.51,142.2a8.2,8.2,0,0,0,2.19,6.15A8.64,8.64,0,0,0,177,150.5h5.52v28H167.92a26.48,26.48,0,0,1-20.23-7.63,30.22,30.22,0,0,1-7.19-21.54V25.5h28Z"/></g></g></svg>
