<svg xmlns="http://www.w3.org/2000/svg" viewBox="0 0 744 742.96"><defs><style>.cls-1{fill:#5fbf5c;}.cls-2{fill:#fff;}.cls-3{fill:none;}</style></defs><title>Asset 21</title><g id="Layer_2" data-name="Layer 2"><g id="Layer_1-2" data-name="Layer 1"><path class="cls-1" d="M0,642.91H26v98.6H0Zm57,38.86q0-7.23-4.13-11.21t-11.74-4q-7.22,0-11.16,4T26,682l-2-21.84q4.46-9.32,10.68-14t15.63-4.65q15.57,0,24.13,10.5T83,681.67v59.85H57Z"/><path class="cls-1" d="M134.7,708.94a7.3,7.3,0,0,0,2,5.55,8.13,8.13,0,0,0,5.84,2H147v25.08h-13.3q-11.87,0-18.42-6.84t-6.56-19.29v-112h26Z"/><path class="cls-2" d="M186.59,642.92h22.7v98.6h-22.7Zm58.23,40.28q0-9.6-4.7-14.78t-13.35-5.17q-8.36,0-12.92,4.51t-4.56,12.78l-2-20.43a35.37,35.37,0,0,1,11.4-13.82,27.11,27.11,0,0,1,15.86-4.79q10.35,0,17.76,4.84a30,30,0,0,1,11.26,14.2q3.84,9.36,3.85,22.56v58.42h-22.6Zm58.13,0q0-9.6-4.75-14.77t-13.48-5.18q-8.27,0-12.78,5t-4.51,14.2l-4.37-20.9a37.28,37.28,0,0,1,12.2-14.82A28.86,28.86,0,0,1,292,641.5q10.64,0,18.19,4.84a30.19,30.19,0,0,1,11.49,14.2q3.94,9.36,4,22.57v58.42H303Z"/><path class="cls-2" d="M356.91,735.4q-8.46-7.56-8.46-22.94,0-14.62,8.55-21.94t25.65-7.32h26.41l1.33,17.67H382.75q-6.75,0-10.12,2.85t-3.37,8.74q0,6.18,4.37,9.17t13.2,3q10.83,0,16.1-2.38t5.27-7.4l2,14a16.54,16.54,0,0,1-5.66,7.79,27.48,27.48,0,0,1-9.73,4.7A46.64,46.64,0,0,1,382.36,743Q365.36,743,356.91,735.4ZM408.2,679c0-5.51-1.63-9.78-4.89-12.82s-7.87-4.56-13.82-4.56a35.87,35.87,0,0,0-11.21,1.8,35,35,0,0,0-9.88,5l-15.1-12.73a38.35,38.35,0,0,1,15.2-10.5,56,56,0,0,1,20.9-3.75q12.54,0,21.47,4.32a30.79,30.79,0,0,1,13.63,12.54q4.69,8.22,4.7,19.81v63.36h-21Z"/><path class="cls-2" d="M449.15,642.93H495.5v19.85H449.15Zm16,92.47q-5.79-6.6-5.79-19.52V614.24H482v98.51a9.3,9.3,0,0,0,1.43,5.56,4.84,4.84,0,0,0,4.18,1.94h7.88V742H483.34Q470.89,742,465.1,735.4Z"/><path class="cls-2" d="M519.54,603.41h22.61v22.71H519.54Zm0,39.52h22.61v98.6H519.53Z"/><path class="cls-2" d="M586.22,737.78a34.64,34.64,0,0,1-14.91-15.1q-5.13-9.93-5.13-24V685.3q0-13.87,5.13-23.7a34.53,34.53,0,0,1,14.91-15q9.78-5.13,23.56-5.13a58,58,0,0,1,14.87,1.85,45.14,45.14,0,0,1,12.54,5.37,33.72,33.72,0,0,1,9.26,8.55l-15.39,14.44a26.86,26.86,0,0,0-9.12-6.27A28,28,0,0,0,611,663.26q-10.54,0-16.33,5.75t-5.8,16.29v13.39q0,10.83,5.75,16.67T611,721.21a26.51,26.51,0,0,0,20-9.12l15.38,15.39a35.13,35.13,0,0,1-9.35,8.4,44.7,44.7,0,0,1-12.54,5.28,59,59,0,0,1-14.77,1.8Q596,743,586.22,737.78Z"/><path class="cls-2" d="M685.39,741.3a69.21,69.21,0,0,1-15-4.89,56.75,56.75,0,0,1-12.59-7.89l13.78-17.09A62.4,62.4,0,0,0,687,719.5a45.75,45.75,0,0,0,15.24,2.76q10.37,0,15.73-2.81t5.36-8.12a7.21,7.21,0,0,0-2.66-6.12,15.45,15.45,0,0,0-6.69-2.81q-4-.75-11.35-1.42l-2.57-.19c-.89-.06-1.74-.16-2.56-.29a6.34,6.34,0,0,1-.76,0,4.93,4.93,0,0,0-.76-.05,94.7,94.7,0,0,1-17-3.18,22.26,22.26,0,0,1-11.16-7.84q-4.51-5.79-4.51-16.63,0-10.15,4.51-17.14A27.69,27.69,0,0,1,681,645.07q8.75-3.55,21.47-3.56A74,74,0,0,1,717.31,643a72.71,72.71,0,0,1,13.82,4.28,66.54,66.54,0,0,1,12.49,7L730,670.77a62.76,62.76,0,0,0-14-6.36,46.38,46.38,0,0,0-13.73-2.19q-8.92,0-13.58,2.56a8.21,8.21,0,0,0-4.66,7.6,5.57,5.57,0,0,0,2.57,4.94,16,16,0,0,0,6.41,2.33q3.84.61,11.16,1.28.76.11,1.47.15c.48,0,1,.08,1.48.14h.66a3.29,3.29,0,0,1,.76.09,101.89,101.89,0,0,1,18.14,3.14A24.2,24.2,0,0,1,739,692.76q5,6.22,5,18.1,0,10.46-4.75,17.62t-14.1,10.83Q715.79,743,702.2,743A82.13,82.13,0,0,1,685.39,741.3Z"/><path d="M223.85,422.65C369,438,372.76,523.94,372.76,523.94s3.76-86,148.86-101.35c-74-97.78,0-165.85,0-165.85-145.11-15.3-148.91-101.28-148.91-101.28s-3.76,86-148.86,101.34C223.82,256.8,297.85,324.84,223.85,422.65Z"/><circle class="cls-2" cx="372.55" cy="337.58" r="36.79"/><circle cx="106.86" cy="203.14" r="22.33"/><circle cx="105.44" cy="482.5" r="22.33"/><circle cx="631.41" cy="482.78" r="22.33"/><circle cx="631.21" cy="200.63" r="22.33"/><path class="cls-3" d="M112.17,191.37h0a12.69,12.69,0,0,0-5.28-1.14,12.9,12.9,0,1,0,5.29,1.14Z"/><path class="cls-3" d="M627.44,213a12.81,12.81,0,0,0,9.82-.94h0a12.89,12.89,0,1,0-9.82.94Z"/><path class="cls-3" d="M99.57,471a12.89,12.89,0,1,0,17.36,5.61A12.82,12.82,0,0,0,99.57,471Z"/><path class="cls-3" d="M484.85,300.16a128.34,128.34,0,0,1,18.33-36.29c-53.8-8.3-93.37-27.62-117.77-57.55a109,109,0,0,1-12.72-19.44A108.79,108.79,0,0,1,360,206.33c-24.39,29.93-64,49.27-117.75,57.59a128.65,128.65,0,0,1,18.35,36.28c8.37,26.43,11,67-20,115.06,54.67,8.16,94.82,27.57,119.48,57.81,5.48,6.73,9.44,21.77,12.55,27.88,3.1-6.12,7.4-21.16,12.88-27.88,24.65-30.25,64.79-49.68,119.46-57.86C473.84,367.18,476.49,326.59,484.85,300.16Z"/><path class="cls-3" d="M637.6,471.46a12.9,12.9,0,1,0,6.19,7.69A12.85,12.85,0,0,0,637.6,471.46Z"/><path class="cls-1" d="M661.89,473.84A31.77,31.77,0,0,0,609.32,460l-81.15-44.36c-27.75-37.23-36.37-73.88-25.58-109a109.8,109.8,0,0,1,22-39.37l83.83-44.52a31.69,31.69,0,0,0,37.68,5.94h0a31.75,31.75,0,1,0-46.22-22.76L522,247.3c-55.78-6-97.65-23.91-121.09-51.87a116.44,116.44,0,0,1-18.76-31l0-102.37a31.77,31.77,0,1,0-18.87,0l0,102.21a115,115,0,0,1-18.74,31.14c-22.92,27.35-63.46,45.12-117.42,51.5L138.4,207a31.78,31.78,0,1,0-7.75,17.19l85.79,38.65,1,.92c.17.15,16.75,15.61,25.15,42.15,11,34.81,2.9,71.2-24.14,108.2l-90.3,46.19A31.82,31.82,0,0,0,91,454.22h0a31.75,31.75,0,1,0,45.77,22.86l87.71-44.87c55.29,6.09,96.8,24,120.1,51.76a87.5,87.5,0,0,1,14.81,24.86V524a11,11,0,0,0-8.1,10.52v56h43.78v-56a11,11,0,0,0-9.27-10.77v-14A87.21,87.21,0,0,1,400.93,484c23.07-27.54,64-45.36,118.54-51.63l80.8,44.17a31.76,31.76,0,1,0,61.62-2.66Zm-43-277A12.9,12.9,0,1,1,637.26,212h0a12.9,12.9,0,0,1-18.38-15.17ZM118.63,208.42a12.9,12.9,0,1,1-11.75-18.19,12.69,12.69,0,0,1,5.28,1.14h0A12.91,12.91,0,0,1,118.63,208.42Zm-.92,278a12.89,12.89,0,1,1-.78-9.83A12.8,12.8,0,0,1,117.71,486.46ZM359.77,31.76a12.9,12.9,0,1,1,12.89,12.9A12.91,12.91,0,0,1,359.77,31.76Zm25.69,441.31c-5.48,6.72-9.78,21.76-12.88,27.88-3.11-6.11-7.07-21.15-12.55-27.88-24.66-30.24-64.81-49.65-119.48-57.81,31.06-48,28.4-88.63,20-115.06a128.65,128.65,0,0,0-18.35-36.28C296,255.6,335.59,236.26,360,206.33a108.79,108.79,0,0,0,12.71-19.45,109,109,0,0,0,12.72,19.44c24.4,29.93,64,49.25,117.77,57.55a128.34,128.34,0,0,0-18.33,36.29c-8.36,26.43-11,67,20.07,115C450.25,423.39,410.11,442.82,385.46,473.07ZM642.73,489a12.9,12.9,0,1,1,1.06-9.81A12.87,12.87,0,0,1,642.73,489Z"/></g></g></svg>